<svg xmlns="http://www.w3.org/2000/svg" viewBox="0 0 32 32">
  <!-- Jason Voorhees Hockey Mask -->
  <defs>
    <linearGradient id="maskGradient" x1="0%" y1="0%" x2="0%" y2="100%">
      <stop offset="0%" style="stop-color:#f5f5f5"/>
      <stop offset="100%" style="stop-color:#d4d4d4"/>
    </linearGradient>
  </defs>

  <!-- Main mask shape -->
  <path d="M16 2 C8 2 4 8 4 14 C4 20 6 26 10 29 C12 30 14 30 16 30 C18 30 20 30 22 29 C26 26 28 20 28 14 C28 8 24 2 16 2 Z" fill="url(#maskGradient)" stroke="#8b0000" stroke-width="0.5"/>

  <!-- Left eye hole (triangular) -->
  <path d="M8 12 L12 10 L12 16 Z" fill="#1a1a1a"/>

  <!-- Right eye hole (triangular) -->
  <path d="M24 12 L20 10 L20 16 Z" fill="#1a1a1a"/>

  <!-- Nose area (chevron) -->
  <path d="M14 14 L16 18 L18 14" fill="none" stroke="#8b0000" stroke-width="1"/>

  <!-- Red marking/blood accent -->
  <path d="M16 6 L16 10" stroke="#8b0000" stroke-width="1.5"/>

  <!-- Ventilation holes on cheeks -->
  <circle cx="9" cy="22" r="1" fill="#4a4a4a"/>
  <circle cx="11" cy="24" r="1" fill="#4a4a4a"/>
  <circle cx="13" cy="22" r="1" fill="#4a4a4a"/>

  <circle cx="23" cy="22" r="1" fill="#4a4a4a"/>
  <circle cx="21" cy="24" r="1" fill="#4a4a4a"/>
  <circle cx="19" cy="22" r="1" fill="#4a4a4a"/>

  <!-- Chin ventilation -->
  <circle cx="16" cy="26" r="1" fill="#4a4a4a"/>
</svg>
